<svg viewBox="0 0 508 482" xmlns="http://www.w3.org/2000/svg" fill-rule="evenodd" clip-rule="evenodd" stroke-linejoin="round" stroke-miterlimit="1.5"><path class="vector-p1" d="M192.847 17.052c0-11.524-13.588-20.88-19.075-20.88L25.49 32.296c-.591 0-19.075 9.356-19.075 20.879v433.42c0 11.524 8.547 20.88 19.075 20.88l148.282-36.123c2.346 0 19.075-9.356 19.075-20.88V17.052z" fill="none" stroke="#ff5c00" stroke-width="11.33" transform="matrix(-.85018 0 0 .91353 508.025 10.568)"/><path class="vector-p2" d="M192.847 17.052c0-11.524-12.147-20.88-19.075-20.88l-1.372.334L26.634 32.017l-1.144.279c-2.589 0-19.075 9.356-19.075 20.879v433.42c0 11.524 8.547 20.88 19.075 20.88l148.282-36.123c1.967 0 19.075-9.356 19.075-20.88V17.052z" fill="none" stroke="#ffb100" stroke-width="11.33" stroke-linecap="square" transform="matrix(.85018 0 0 .91353 170.117 10.568)"/><path class="vector-p3" d="M192.847 17.052c0-11.524-8.547-20.88-19.075-20.88L25.49 32.296c-.126 0-19.075 9.356-19.075 20.879v433.42c0 11.524 8.547 20.88 19.075 20.88l147.796-36.005.486-.118c2.769 0 19.075-9.356 19.075-20.88V17.052z" fill="none" stroke="red" stroke-width="11.33" stroke-linecap="square" transform="matrix(-.85018 0 0 .91353 171.025 10.568)"/></svg>