<svg class="logo" viewBox="0 0 412 161" xmlns="http://www.w3.org/2000/svg" fill-rule="evenodd" clip-rule="evenodd" stroke-linejoin="round" stroke-miterlimit="1.5"><g class="vector-text-top" fill="#2c2c2c"><path d="M200.218 32.143h6.264v35.316h-6.264z"/><path d="M214.906 67.459V40.945h5.13l.432 3.564h.216a21.02 21.02 0 0 1 3.861-2.97c1.386-.828 2.997-1.242 4.833-1.242 2.844 0 4.914.909 6.21 2.727 1.296 1.818 1.944 4.419 1.944 7.803v16.632h-6.21V51.637c0-2.196-.324-3.744-.972-4.644-.648-.9-1.71-1.35-3.186-1.35-1.152 0-2.169.279-3.051.837-.882.558-1.881 1.377-2.997 2.457v18.522h-6.21zM254.434 68.107c-3.348 0-6.003-1.215-7.965-3.645-1.962-2.43-2.943-5.841-2.943-10.233 0-2.16.315-4.104.945-5.832.63-1.728 1.467-3.186 2.511-4.374 1.044-1.188 2.241-2.106 3.591-2.754a9.565 9.565 0 0 1 4.185-.972c1.512 0 2.79.261 3.834.783s2.088 1.233 3.132 2.133l-.216-4.266v-9.612h6.21v38.124h-5.13l-.432-2.862h-.216c-.972.972-2.106 1.8-3.402 2.484a8.67 8.67 0 0 1-4.104 1.026zm1.512-5.13c1.98 0 3.834-.99 5.562-2.97V47.641c-.936-.828-1.845-1.404-2.727-1.728a7.7 7.7 0 0 0-2.673-.486c-1.728 0-3.186.756-4.374 2.268-1.188 1.512-1.782 3.672-1.782 6.48 0 2.88.513 5.067 1.539 6.561 1.026 1.494 2.511 2.241 4.455 2.241zM275.602 67.459V40.945h6.21v26.514h-6.21zm3.132-31.158c-1.116 0-2.034-.324-2.754-.972-.72-.648-1.08-1.494-1.08-2.538 0-1.044.36-1.899 1.08-2.565.72-.666 1.638-.999 2.754-.999s2.034.333 2.754.999c.72.666 1.08 1.521 1.08 2.565s-.36 1.89-1.08 2.538c-.72.648-1.638.972-2.754.972zM301.09 68.107c-1.836 0-3.546-.315-5.13-.945a12.181 12.181 0 0 1-4.158-2.727c-1.188-1.188-2.115-2.637-2.781-4.347-.666-1.71-.999-3.663-.999-5.859 0-2.16.342-4.104 1.026-5.832.684-1.728 1.593-3.186 2.727-4.374a12.082 12.082 0 0 1 3.915-2.754 11.178 11.178 0 0 1 4.536-.972c1.8 0 3.384.306 4.752.918a9.271 9.271 0 0 1 3.429 2.592c.918 1.116 1.611 2.448 2.079 3.996.468 1.548.702 3.24.702 5.076a17.4 17.4 0 0 1-.081 1.728c-.054.54-.117.972-.189 1.296H294.07c.288 2.376 1.125 4.203 2.511 5.481 1.386 1.278 3.159 1.917 5.319 1.917 1.152 0 2.223-.171 3.213-.513.99-.342 1.971-.819 2.943-1.431l2.106 3.888a19.067 19.067 0 0 1-4.212 2.052c-1.548.54-3.168.81-4.86.81zm-7.074-16.416h11.772c0-2.052-.441-3.663-1.323-4.833-.882-1.17-2.241-1.755-4.077-1.755-1.584 0-2.97.558-4.158 1.674-1.188 1.116-1.926 2.754-2.214 4.914zM320.638 67.459l-7.02-35.316h6.426l3.078 17.82c.288 1.908.576 3.798.864 5.67l.864 5.616h.216c.396-1.872.783-3.753 1.161-5.643.378-1.89.765-3.771 1.161-5.643l4.32-17.82h5.454l4.32 17.82c.396 1.836.792 3.699 1.188 5.589.396 1.89.792 3.789 1.188 5.697h.216c.288-1.908.567-3.798.837-5.67.27-1.872.549-3.744.837-5.616l3.078-17.82h5.994l-6.75 35.316h-7.776l-4.374-18.576a412.072 412.072 0 0 1-.837-4.077c-.27-1.35-.513-2.709-.729-4.077h-.216a272.64 272.64 0 0 1-.783 4.077c-.27 1.35-.549 2.709-.837 4.077l-4.266 18.576h-7.614zM371.128 68.107c-1.836 0-3.546-.315-5.13-.945a12.181 12.181 0 0 1-4.158-2.727c-1.188-1.188-2.115-2.637-2.781-4.347-.666-1.71-.999-3.663-.999-5.859 0-2.16.342-4.104 1.026-5.832.684-1.728 1.593-3.186 2.727-4.374a12.082 12.082 0 0 1 3.915-2.754 11.178 11.178 0 0 1 4.536-.972c1.8 0 3.384.306 4.752.918a9.271 9.271 0 0 1 3.429 2.592c.918 1.116 1.611 2.448 2.079 3.996.468 1.548.702 3.24.702 5.076a17.4 17.4 0 0 1-.081 1.728c-.054.54-.117.972-.189 1.296h-16.848c.288 2.376 1.125 4.203 2.511 5.481 1.386 1.278 3.159 1.917 5.319 1.917 1.152 0 2.223-.171 3.213-.513.99-.342 1.971-.819 2.943-1.431l2.106 3.888a19.067 19.067 0 0 1-4.212 2.052c-1.548.54-3.168.81-4.86.81zm-7.074-16.416h11.772c0-2.052-.441-3.663-1.323-4.833-.882-1.17-2.241-1.755-4.077-1.755-1.584 0-2.97.558-4.158 1.674-1.188 1.116-1.926 2.754-2.214 4.914zM400.018 68.107c-1.224 0-2.457-.297-3.699-.891-1.242-.594-2.421-1.449-3.537-2.565h-.162l-.54 2.808h-4.914V29.335h6.21v9.828l-.162 4.428a15.479 15.479 0 0 1 3.645-2.376c1.314-.612 2.655-.918 4.023-.918 1.656 0 3.132.315 4.428.945a9.168 9.168 0 0 1 3.294 2.7c.9 1.17 1.584 2.583 2.052 4.239.468 1.656.702 3.51.702 5.562 0 2.268-.315 4.293-.945 6.075-.63 1.782-1.467 3.285-2.511 4.509-1.044 1.224-2.25 2.16-3.618 2.808a9.853 9.853 0 0 1-4.266.972zm-1.296-5.13c1.764 0 3.24-.765 4.428-2.295 1.188-1.53 1.782-3.807 1.782-6.831 0-2.664-.45-4.734-1.35-6.21-.9-1.476-2.358-2.214-4.374-2.214-1.872 0-3.816.99-5.832 2.97v12.366c.936.828 1.863 1.404 2.781 1.728.918.324 1.773.486 2.565.486z" fill-rule="nonzero"/><g class="vector-text-bottom" fill-rule="nonzero"><path d="M215.446 131.107c-2.412 0-4.671-.387-6.777-1.161s-3.933-1.917-5.481-3.429c-1.548-1.512-2.763-3.393-3.645-5.643-.882-2.25-1.323-4.851-1.323-7.803 0-2.916.45-5.517 1.35-7.803.9-2.286 2.133-4.221 3.699-5.805a15.825 15.825 0 0 1 5.481-3.618c2.088-.828 4.302-1.242 6.642-1.242 2.556 0 4.752.468 6.588 1.404 1.836.936 3.33 1.998 4.482 3.186l-4.158 5.076a15.176 15.176 0 0 0-2.862-1.998c-1.008-.54-2.268-.81-3.78-.81-1.368 0-2.619.261-3.753.783a8.495 8.495 0 0 0-2.943 2.241c-.828.972-1.467 2.16-1.917 3.564-.45 1.404-.675 2.988-.675 4.752 0 3.636.819 6.453 2.457 8.451 1.638 1.998 4.113 2.997 7.425 2.997.72 0 1.422-.09 2.106-.27.684-.18 1.242-.45 1.674-.81v-6.048h-5.832v-6.48h12.852v16.2c-1.224 1.188-2.844 2.196-4.86 3.024-2.016.828-4.266 1.242-6.75 1.242zM241.744 131.107c-2.916 0-5.031-.954-6.345-2.862-1.314-1.908-1.971-4.554-1.971-7.938v-16.632h7.938v15.606c0 1.944.27 3.276.81 3.996.54.72 1.386 1.08 2.538 1.08 1.008 0 1.854-.234 2.538-.702.684-.468 1.422-1.224 2.214-2.268v-17.712h7.938v26.784h-6.48l-.594-3.726h-.162c-1.152 1.368-2.385 2.439-3.699 3.213s-2.889 1.161-4.725 1.161zM264.37 130.459v-26.784h7.938v26.784h-7.938zm3.942-30.726c-1.332 0-2.43-.387-3.294-1.161-.864-.774-1.296-1.773-1.296-2.997s.432-2.214 1.296-2.97c.864-.756 1.962-1.134 3.294-1.134 1.368 0 2.475.378 3.321 1.134.846.756 1.269 1.746 1.269 2.97 0 1.224-.423 2.223-1.269 2.997-.846.774-1.953 1.161-3.321 1.161zM288.832 131.107c-1.656 0-3.159-.324-4.509-.972a9.731 9.731 0 0 1-3.456-2.781c-.954-1.206-1.692-2.673-2.214-4.401-.522-1.728-.783-3.69-.783-5.886s.315-4.158.945-5.886c.63-1.728 1.458-3.195 2.484-4.401s2.214-2.133 3.564-2.781c1.35-.648 2.727-.972 4.131-.972 1.512 0 2.754.252 3.726.756s1.926 1.188 2.862 2.052l-.324-4.104v-9.126h7.938v37.854h-6.48l-.54-2.646h-.216a12.557 12.557 0 0 1-3.294 2.349c-1.26.63-2.538.945-3.834.945zm2.052-6.48c.864 0 1.647-.18 2.349-.54.702-.36 1.377-.99 2.025-1.89v-10.962c-.72-.648-1.458-1.098-2.214-1.35a6.98 6.98 0 0 0-2.214-.378c-1.26 0-2.376.603-3.348 1.809s-1.458 3.087-1.458 5.643c0 2.664.423 4.608 1.269 5.832.846 1.224 2.043 1.836 3.591 1.836zM322.204 131.107c-1.908 0-3.69-.315-5.346-.945a12.32 12.32 0 0 1-4.32-2.754c-1.224-1.206-2.178-2.673-2.862-4.401-.684-1.728-1.026-3.708-1.026-5.94 0-2.16.36-4.113 1.08-5.859.72-1.746 1.665-3.222 2.835-4.428a12.323 12.323 0 0 1 4.023-2.781 11.81 11.81 0 0 1 4.698-.972c1.908 0 3.573.324 4.995.972 1.422.648 2.61 1.548 3.564 2.7.954 1.152 1.665 2.511 2.133 4.077.468 1.566.702 3.267.702 5.103 0 .72-.036 1.404-.108 2.052a14.855 14.855 0 0 1-.216 1.458h-16.038c.36 1.944 1.161 3.375 2.403 4.293 1.242.918 2.763 1.377 4.563 1.377 1.908 0 3.834-.594 5.778-1.782l2.646 4.806a17.592 17.592 0 0 1-4.563 2.214c-1.674.54-3.321.81-4.941.81zm-5.94-16.956h9.666c0-1.512-.342-2.736-1.026-3.672-.684-.936-1.836-1.404-3.456-1.404-1.26 0-2.367.414-3.321 1.242-.954.828-1.575 2.106-1.863 3.834zM346.072 131.107c-1.764 0-3.573-.342-5.427-1.026-1.854-.684-3.465-1.584-4.833-2.7l3.564-4.968c1.224.936 2.394 1.638 3.51 2.106a8.724 8.724 0 0 0 3.402.702c1.188 0 2.052-.198 2.592-.594.54-.396.81-.954.81-1.674 0-.432-.153-.819-.459-1.161-.306-.342-.72-.657-1.242-.945a12.233 12.233 0 0 0-1.755-.783 41.322 41.322 0 0 1-1.998-.783 25.312 25.312 0 0 1-2.484-1.134 10.506 10.506 0 0 1-2.268-1.593 7.814 7.814 0 0 1-1.674-2.214c-.432-.846-.648-1.827-.648-2.943 0-1.224.243-2.358.729-3.402a7.278 7.278 0 0 1 2.079-2.646c.9-.72 1.98-1.287 3.24-1.701 1.26-.414 2.664-.621 4.212-.621 2.052 0 3.852.351 5.4 1.053 1.548.702 2.898 1.485 4.05 2.349l-3.564 4.752c-.972-.72-1.926-1.278-2.862-1.674-.936-.396-1.872-.594-2.808-.594-2.016 0-3.024.702-3.024 2.106 0 .432.144.801.432 1.107.288.306.675.585 1.161.837s1.044.495 1.674.729l1.971.729c.864.324 1.719.693 2.565 1.107.846.414 1.62.927 2.322 1.539a7.044 7.044 0 0 1 1.701 2.241c.432.882.648 1.935.648 3.159 0 1.224-.234 2.358-.702 3.402-.468 1.044-1.17 1.953-2.106 2.727-.936.774-2.088 1.386-3.456 1.836-1.368.45-2.952.675-4.752.675z"/></g></g><g fill="none" stroke-width="3.33"><path d="M114.635 8.711c0-3.508 3.849-6.355 5.403-6.355l42.001 10.995c.168 0 5.403 2.847 5.403 6.355v131.917c0 3.507-2.421 6.355-5.403 6.355l-42.001-10.995c-.665 0-5.403-2.847-5.403-6.355V8.711z" stroke="#ff5c00"/><path d="M111.303 8.711c0-3.508-3.441-6.355-5.403-6.355l-.389.102-41.289 10.808-.324.085c-.733 0-5.403 2.847-5.403 6.355v131.917c0 3.507 2.421 6.355 5.403 6.355l42.002-10.995c.557 0 5.403-2.847 5.403-6.355V8.711z" stroke="#ffb100" stroke-linecap="square"/><path d="M2.356 8.711c0-3.508 2.421-6.355 5.403-6.355l42.002 10.995c.035 0 5.403 2.847 5.403 6.355v131.917c0 3.507-2.421 6.355-5.403 6.355L7.897 147.019l-.138-.036c-.785 0-5.403-2.847-5.403-6.355V8.711z" stroke="red" stroke-linecap="square"/></g></svg>